<mxfile host="app.diagrams.net" modified="2022-01-28T12:42:34.009Z" agent="5.0 (Windows NT 10.0; Win64; x64) AppleWebKit/537.36 (KHTML, like Gecko) Chrome/97.0.4692.99 Safari/537.36" etag="9JVjiQH3oY3k5CGGSwbd" version="15.9.6" type="github" pages="2">
  <diagram id="2mUD2TC-FFIhJfvZiqMT" name="M1 types">
    <mxGraphModel dx="3163" dy="2406" grid="1" gridSize="10" guides="1" tooltips="1" connect="1" arrows="1" fold="1" page="1" pageScale="1" pageWidth="827" pageHeight="1169" math="0" shadow="0">
      <root>
        <mxCell id="0" />
        <mxCell id="1" parent="0" />
        <mxCell id="lQtd0ZYqk-3RHYO5bnGG-3" value="&lt;&lt;interface&gt;&gt;&#xa;Capteur" style="swimlane;fontStyle=1;align=center;verticalAlign=top;childLayout=stackLayout;horizontal=1;startSize=40;horizontalStack=0;resizeParent=1;resizeParentMax=0;resizeLast=0;collapsible=1;marginBottom=0;" parent="1" vertex="1">
          <mxGeometry x="80" y="130" width="200" height="130" as="geometry" />
        </mxCell>
        <mxCell id="lQtd0ZYqk-3RHYO5bnGG-5" value="" style="line;strokeWidth=1;fillColor=none;align=left;verticalAlign=middle;spacingTop=-1;spacingLeft=3;spacingRight=3;rotatable=0;labelPosition=right;points=[];portConstraint=eastwest;" parent="lQtd0ZYqk-3RHYO5bnGG-3" vertex="1">
          <mxGeometry y="40" width="200" height="8" as="geometry" />
        </mxCell>
        <mxCell id="lQtd0ZYqk-3RHYO5bnGG-6" value="attach(o:ObserverDeCapteur)&#xa;getValue():Integer&#xa;tick()&#xa;NotifyObservateur()" style="text;strokeColor=none;fillColor=none;align=left;verticalAlign=top;spacingLeft=4;spacingRight=4;overflow=hidden;rotatable=0;points=[[0,0.5],[1,0.5]];portConstraint=eastwest;" parent="lQtd0ZYqk-3RHYO5bnGG-3" vertex="1">
          <mxGeometry y="48" width="200" height="82" as="geometry" />
        </mxCell>
        <mxCell id="lQtd0ZYqk-3RHYO5bnGG-7" value="&lt;&lt;interface&gt;&gt;&#xa;ObserveurDeCapteur" style="swimlane;fontStyle=1;align=center;verticalAlign=top;childLayout=stackLayout;horizontal=1;startSize=40;horizontalStack=0;resizeParent=1;resizeParentMax=0;resizeLast=0;collapsible=1;marginBottom=0;" parent="1" vertex="1">
          <mxGeometry x="610" y="330" width="200" height="110" as="geometry" />
        </mxCell>
        <mxCell id="lQtd0ZYqk-3RHYO5bnGG-8" value="" style="line;strokeWidth=1;fillColor=none;align=left;verticalAlign=middle;spacingTop=-1;spacingLeft=3;spacingRight=3;rotatable=0;labelPosition=right;points=[];portConstraint=eastwest;" parent="lQtd0ZYqk-3RHYO5bnGG-7" vertex="1">
          <mxGeometry y="40" width="200" height="8" as="geometry" />
        </mxCell>
        <mxCell id="lQtd0ZYqk-3RHYO5bnGG-9" value="update(s:Capteur)" style="text;strokeColor=none;fillColor=none;align=left;verticalAlign=top;spacingLeft=4;spacingRight=4;overflow=hidden;rotatable=0;points=[[0,0.5],[1,0.5]];portConstraint=eastwest;" parent="lQtd0ZYqk-3RHYO5bnGG-7" vertex="1">
          <mxGeometry y="48" width="200" height="62" as="geometry" />
        </mxCell>
        <mxCell id="lQtd0ZYqk-3RHYO5bnGG-20" value="" style="endArrow=block;dashed=1;endFill=0;endSize=12;html=1;exitX=0.5;exitY=0;exitDx=0;exitDy=0;entryX=0.492;entryY=0.984;entryDx=0;entryDy=0;entryPerimeter=0;" parent="1" source="lQtd0ZYqk-3RHYO5bnGG-12" target="lQtd0ZYqk-3RHYO5bnGG-6" edge="1">
          <mxGeometry width="160" relative="1" as="geometry">
            <mxPoint x="330" y="400" as="sourcePoint" />
            <mxPoint x="490" y="400" as="targetPoint" />
          </mxGeometry>
        </mxCell>
        <mxCell id="lQtd0ZYqk-3RHYO5bnGG-21" value="" style="endArrow=block;dashed=1;endFill=0;endSize=12;html=1;exitX=0.43;exitY=-0.019;exitDx=0;exitDy=0;exitPerimeter=0;entryX=0.452;entryY=1.027;entryDx=0;entryDy=0;entryPerimeter=0;" parent="1" source="lQtd0ZYqk-3RHYO5bnGG-16" target="lQtd0ZYqk-3RHYO5bnGG-9" edge="1">
          <mxGeometry width="160" relative="1" as="geometry">
            <mxPoint x="570" y="280" as="sourcePoint" />
            <mxPoint x="730" y="280" as="targetPoint" />
          </mxGeometry>
        </mxCell>
        <mxCell id="lQtd0ZYqk-3RHYO5bnGG-12" value="CapteurImpl" style="swimlane;fontStyle=1;align=center;verticalAlign=top;childLayout=stackLayout;horizontal=1;startSize=26;horizontalStack=0;resizeParent=1;resizeParentMax=0;resizeLast=0;collapsible=1;marginBottom=0;" parent="1" vertex="1">
          <mxGeometry x="80" y="340" width="200" height="130" as="geometry" />
        </mxCell>
        <mxCell id="lQtd0ZYqk-3RHYO5bnGG-13" value="value:Integer" style="text;strokeColor=none;fillColor=none;align=left;verticalAlign=top;spacingLeft=4;spacingRight=4;overflow=hidden;rotatable=0;points=[[0,0.5],[1,0.5]];portConstraint=eastwest;" parent="lQtd0ZYqk-3RHYO5bnGG-12" vertex="1">
          <mxGeometry y="26" width="200" height="26" as="geometry" />
        </mxCell>
        <mxCell id="lQtd0ZYqk-3RHYO5bnGG-14" value="" style="line;strokeWidth=1;fillColor=none;align=left;verticalAlign=middle;spacingTop=-1;spacingLeft=3;spacingRight=3;rotatable=0;labelPosition=right;points=[];portConstraint=eastwest;" parent="lQtd0ZYqk-3RHYO5bnGG-12" vertex="1">
          <mxGeometry y="52" width="200" height="8" as="geometry" />
        </mxCell>
        <mxCell id="lQtd0ZYqk-3RHYO5bnGG-15" value="attach(o:ObserverDeCapteur)&#xa;getValue():Integer&#xa;tick()&#xa;NotifyObservateur()" style="text;strokeColor=none;fillColor=none;align=left;verticalAlign=top;spacingLeft=4;spacingRight=4;overflow=hidden;rotatable=0;points=[[0,0.5],[1,0.5]];portConstraint=eastwest;" parent="lQtd0ZYqk-3RHYO5bnGG-12" vertex="1">
          <mxGeometry y="60" width="200" height="70" as="geometry" />
        </mxCell>
        <mxCell id="lQtd0ZYqk-3RHYO5bnGG-23" value="" style="endArrow=open;endSize=12;dashed=1;html=1;exitX=0.943;exitY=0.829;exitDx=0;exitDy=0;exitPerimeter=0;entryX=-0.005;entryY=0.182;entryDx=0;entryDy=0;entryPerimeter=0;" parent="1" source="u4inovR8USdmvOTjzRPa-23" target="lQtd0ZYqk-3RHYO5bnGG-16" edge="1">
          <mxGeometry x="-0.5618" y="-42" width="160" relative="1" as="geometry">
            <mxPoint x="449.6999999999998" y="323.70000000000005" as="sourcePoint" />
            <mxPoint x="560" y="470" as="targetPoint" />
            <mxPoint as="offset" />
          </mxGeometry>
        </mxCell>
        <mxCell id="lQtd0ZYqk-3RHYO5bnGG-16" value="Afficheur" style="swimlane;fontStyle=1;align=center;verticalAlign=top;childLayout=stackLayout;horizontal=1;startSize=26;horizontalStack=0;resizeParent=1;resizeParentMax=0;resizeLast=0;collapsible=1;marginBottom=0;" parent="1" vertex="1">
          <mxGeometry x="620" y="525" width="190" height="60" as="geometry" />
        </mxCell>
        <mxCell id="lQtd0ZYqk-3RHYO5bnGG-18" value="" style="line;strokeWidth=1;fillColor=none;align=left;verticalAlign=middle;spacingTop=-1;spacingLeft=3;spacingRight=3;rotatable=0;labelPosition=right;points=[];portConstraint=eastwest;" parent="lQtd0ZYqk-3RHYO5bnGG-16" vertex="1">
          <mxGeometry y="26" width="190" height="8" as="geometry" />
        </mxCell>
        <mxCell id="lQtd0ZYqk-3RHYO5bnGG-19" value="update(s:Capteur)" style="text;strokeColor=none;fillColor=none;align=left;verticalAlign=top;spacingLeft=4;spacingRight=4;overflow=hidden;rotatable=0;points=[[0,0.5],[1,0.5]];portConstraint=eastwest;" parent="lQtd0ZYqk-3RHYO5bnGG-16" vertex="1">
          <mxGeometry y="34" width="190" height="26" as="geometry" />
        </mxCell>
        <mxCell id="lQtd0ZYqk-3RHYO5bnGG-24" value=":Strategy" style="ellipse;whiteSpace=wrap;html=1;dashed=1;" parent="1" vertex="1">
          <mxGeometry x="-250" y="390" width="140" height="70" as="geometry" />
        </mxCell>
        <mxCell id="lQtd0ZYqk-3RHYO5bnGG-25" value="&lt;&lt;interface&gt;&gt;&#xa;AlgoDiffusion" style="swimlane;fontStyle=1;align=center;verticalAlign=top;childLayout=stackLayout;horizontal=1;startSize=40;horizontalStack=0;resizeParent=1;resizeParentMax=0;resizeLast=0;collapsible=1;marginBottom=0;" parent="1" vertex="1">
          <mxGeometry x="-270" y="585" width="160" height="104" as="geometry" />
        </mxCell>
        <mxCell id="lQtd0ZYqk-3RHYO5bnGG-27" value="" style="line;strokeWidth=1;fillColor=none;align=left;verticalAlign=middle;spacingTop=-1;spacingLeft=3;spacingRight=3;rotatable=0;labelPosition=right;points=[];portConstraint=eastwest;" parent="lQtd0ZYqk-3RHYO5bnGG-25" vertex="1">
          <mxGeometry y="40" width="160" height="8" as="geometry" />
        </mxCell>
        <mxCell id="lQtd0ZYqk-3RHYO5bnGG-28" value="configure()&#xa;execute()" style="text;strokeColor=none;fillColor=none;align=left;verticalAlign=top;spacingLeft=4;spacingRight=4;overflow=hidden;rotatable=0;points=[[0,0.5],[1,0.5]];portConstraint=eastwest;" parent="lQtd0ZYqk-3RHYO5bnGG-25" vertex="1">
          <mxGeometry y="48" width="160" height="56" as="geometry" />
        </mxCell>
        <mxCell id="lQtd0ZYqk-3RHYO5bnGG-29" value="Strategy" style="endArrow=open;endSize=12;dashed=1;html=1;exitX=0.274;exitY=0.948;exitDx=0;exitDy=0;exitPerimeter=0;entryX=0.444;entryY=-0.003;entryDx=0;entryDy=0;entryPerimeter=0;" parent="1" source="lQtd0ZYqk-3RHYO5bnGG-24" target="lQtd0ZYqk-3RHYO5bnGG-25" edge="1">
          <mxGeometry width="160" relative="1" as="geometry">
            <mxPoint x="340" y="560" as="sourcePoint" />
            <mxPoint x="500" y="560" as="targetPoint" />
          </mxGeometry>
        </mxCell>
        <mxCell id="lQtd0ZYqk-3RHYO5bnGG-30" value="Context" style="endArrow=open;endSize=12;dashed=1;html=1;exitX=0.645;exitY=0.033;exitDx=0;exitDy=0;exitPerimeter=0;entryX=-0.002;entryY=0.268;entryDx=0;entryDy=0;entryPerimeter=0;" parent="1" source="lQtd0ZYqk-3RHYO5bnGG-24" target="lQtd0ZYqk-3RHYO5bnGG-15" edge="1">
          <mxGeometry width="160" relative="1" as="geometry">
            <mxPoint x="300" y="530" as="sourcePoint" />
            <mxPoint x="460" y="530" as="targetPoint" />
          </mxGeometry>
        </mxCell>
        <mxCell id="lQtd0ZYqk-3RHYO5bnGG-31" value="DiffusionAtomique" style="swimlane;fontStyle=1;align=center;verticalAlign=top;childLayout=stackLayout;horizontal=1;startSize=26;horizontalStack=0;resizeParent=1;resizeParentMax=0;resizeLast=0;collapsible=1;marginBottom=0;" parent="1" vertex="1">
          <mxGeometry x="-280" y="760" width="160" height="84" as="geometry" />
        </mxCell>
        <mxCell id="lQtd0ZYqk-3RHYO5bnGG-33" value="" style="line;strokeWidth=1;fillColor=none;align=left;verticalAlign=middle;spacingTop=-1;spacingLeft=3;spacingRight=3;rotatable=0;labelPosition=right;points=[];portConstraint=eastwest;" parent="lQtd0ZYqk-3RHYO5bnGG-31" vertex="1">
          <mxGeometry y="26" width="160" height="8" as="geometry" />
        </mxCell>
        <mxCell id="lQtd0ZYqk-3RHYO5bnGG-34" value="configure()&#xa;execute()" style="text;strokeColor=none;fillColor=none;align=left;verticalAlign=top;spacingLeft=4;spacingRight=4;overflow=hidden;rotatable=0;points=[[0,0.5],[1,0.5]];portConstraint=eastwest;" parent="lQtd0ZYqk-3RHYO5bnGG-31" vertex="1">
          <mxGeometry y="34" width="160" height="50" as="geometry" />
        </mxCell>
        <mxCell id="lQtd0ZYqk-3RHYO5bnGG-36" value="ConcreteStrategy" style="endArrow=open;endSize=12;dashed=1;html=1;exitX=0;exitY=0.5;exitDx=0;exitDy=0;entryX=0.4;entryY=0.024;entryDx=0;entryDy=0;entryPerimeter=0;" parent="1" source="lQtd0ZYqk-3RHYO5bnGG-24" target="u4inovR8USdmvOTjzRPa-1" edge="1">
          <mxGeometry width="160" relative="1" as="geometry">
            <mxPoint x="400" y="560" as="sourcePoint" />
            <mxPoint x="560" y="560" as="targetPoint" />
            <Array as="points">
              <mxPoint x="-336" y="530" />
            </Array>
          </mxGeometry>
        </mxCell>
        <mxCell id="u4inovR8USdmvOTjzRPa-1" value="DiffusionAtomique" style="swimlane;fontStyle=1;align=center;verticalAlign=top;childLayout=stackLayout;horizontal=1;startSize=26;horizontalStack=0;resizeParent=1;resizeParentMax=0;resizeLast=0;collapsible=1;marginBottom=0;" parent="1" vertex="1">
          <mxGeometry x="-540" y="760" width="160" height="84" as="geometry" />
        </mxCell>
        <mxCell id="u4inovR8USdmvOTjzRPa-2" value="" style="line;strokeWidth=1;fillColor=none;align=left;verticalAlign=middle;spacingTop=-1;spacingLeft=3;spacingRight=3;rotatable=0;labelPosition=right;points=[];portConstraint=eastwest;" parent="u4inovR8USdmvOTjzRPa-1" vertex="1">
          <mxGeometry y="26" width="160" height="8" as="geometry" />
        </mxCell>
        <mxCell id="u4inovR8USdmvOTjzRPa-3" value="configure()&#xa;execute()" style="text;strokeColor=none;fillColor=none;align=left;verticalAlign=top;spacingLeft=4;spacingRight=4;overflow=hidden;rotatable=0;points=[[0,0.5],[1,0.5]];portConstraint=eastwest;" parent="u4inovR8USdmvOTjzRPa-1" vertex="1">
          <mxGeometry y="34" width="160" height="50" as="geometry" />
        </mxCell>
        <mxCell id="u4inovR8USdmvOTjzRPa-4" value="DiffusionAtomique" style="swimlane;fontStyle=1;align=center;verticalAlign=top;childLayout=stackLayout;horizontal=1;startSize=26;horizontalStack=0;resizeParent=1;resizeParentMax=0;resizeLast=0;collapsible=1;marginBottom=0;" parent="1" vertex="1">
          <mxGeometry x="-50" y="760" width="160" height="84" as="geometry" />
        </mxCell>
        <mxCell id="u4inovR8USdmvOTjzRPa-5" value="" style="line;strokeWidth=1;fillColor=none;align=left;verticalAlign=middle;spacingTop=-1;spacingLeft=3;spacingRight=3;rotatable=0;labelPosition=right;points=[];portConstraint=eastwest;" parent="u4inovR8USdmvOTjzRPa-4" vertex="1">
          <mxGeometry y="26" width="160" height="8" as="geometry" />
        </mxCell>
        <mxCell id="u4inovR8USdmvOTjzRPa-6" value="configure()&#xa;execute()" style="text;strokeColor=none;fillColor=none;align=left;verticalAlign=top;spacingLeft=4;spacingRight=4;overflow=hidden;rotatable=0;points=[[0,0.5],[1,0.5]];portConstraint=eastwest;" parent="u4inovR8USdmvOTjzRPa-4" vertex="1">
          <mxGeometry y="34" width="160" height="50" as="geometry" />
        </mxCell>
        <mxCell id="u4inovR8USdmvOTjzRPa-7" value="ConcreteStrategy" style="endArrow=open;endSize=12;dashed=1;html=1;exitX=1;exitY=0.5;exitDx=0;exitDy=0;entryX=0.594;entryY=-0.048;entryDx=0;entryDy=0;entryPerimeter=0;" parent="1" source="lQtd0ZYqk-3RHYO5bnGG-24" target="u4inovR8USdmvOTjzRPa-4" edge="1">
          <mxGeometry x="0.719" y="27" width="160" relative="1" as="geometry">
            <mxPoint x="120" y="575" as="sourcePoint" />
            <mxPoint x="-106" y="792.0160000000001" as="targetPoint" />
            <Array as="points">
              <mxPoint x="-20" y="610" />
            </Array>
            <mxPoint as="offset" />
          </mxGeometry>
        </mxCell>
        <mxCell id="u4inovR8USdmvOTjzRPa-17" value="" style="endArrow=block;dashed=1;endFill=0;endSize=12;html=1;exitX=0.601;exitY=-0.028;exitDx=0;exitDy=0;exitPerimeter=0;entryX=-0.017;entryY=0.361;entryDx=0;entryDy=0;entryPerimeter=0;" parent="1" source="u4inovR8USdmvOTjzRPa-1" target="lQtd0ZYqk-3RHYO5bnGG-28" edge="1">
          <mxGeometry width="160" relative="1" as="geometry">
            <mxPoint x="160" y="880" as="sourcePoint" />
            <mxPoint x="163.6363636363635" y="764" as="targetPoint" />
            <Array as="points" />
          </mxGeometry>
        </mxCell>
        <mxCell id="u4inovR8USdmvOTjzRPa-23" value="Active Object" style="ellipse;whiteSpace=wrap;html=1;dashed=1;" parent="1" vertex="1">
          <mxGeometry x="344" y="300" width="140" height="70" as="geometry" />
        </mxCell>
        <mxCell id="u4inovR8USdmvOTjzRPa-24" value="concrete servant&amp;nbsp;" style="text;html=1;align=center;verticalAlign=middle;resizable=0;points=[];autosize=1;strokeColor=none;fillColor=none;" parent="1" vertex="1">
          <mxGeometry x="460" y="460" width="110" height="20" as="geometry" />
        </mxCell>
        <mxCell id="_2_z6lYFaP5D1PRAQBcr-3" value="" style="endArrow=open;endSize=12;dashed=1;html=1;exitX=1;exitY=0.5;exitDx=0;exitDy=0;entryX=0.003;entryY=0.174;entryDx=0;entryDy=0;entryPerimeter=0;" edge="1" parent="1" source="u4inovR8USdmvOTjzRPa-23" target="lQtd0ZYqk-3RHYO5bnGG-9">
          <mxGeometry x="-0.5618" y="-42" width="160" relative="1" as="geometry">
            <mxPoint x="482.02" y="338.03" as="sourcePoint" />
            <mxPoint x="609.0500000000002" y="450.9200000000001" as="targetPoint" />
            <mxPoint as="offset" />
            <Array as="points">
              <mxPoint x="550" y="320" />
            </Array>
          </mxGeometry>
        </mxCell>
        <mxCell id="_2_z6lYFaP5D1PRAQBcr-4" value="servant" style="text;html=1;align=center;verticalAlign=middle;resizable=0;points=[];autosize=1;strokeColor=none;fillColor=none;" vertex="1" parent="1">
          <mxGeometry x="510" y="330" width="50" height="20" as="geometry" />
        </mxCell>
        <mxCell id="_2_z6lYFaP5D1PRAQBcr-5" value="Scheduler" style="swimlane;fontStyle=1;align=center;verticalAlign=top;childLayout=stackLayout;horizontal=1;startSize=26;horizontalStack=0;resizeParent=1;resizeParentMax=0;resizeLast=0;collapsible=1;marginBottom=0;" vertex="1" parent="1">
          <mxGeometry x="630" y="220" width="190" height="60" as="geometry" />
        </mxCell>
        <mxCell id="_2_z6lYFaP5D1PRAQBcr-6" value="" style="line;strokeWidth=1;fillColor=none;align=left;verticalAlign=middle;spacingTop=-1;spacingLeft=3;spacingRight=3;rotatable=0;labelPosition=right;points=[];portConstraint=eastwest;" vertex="1" parent="_2_z6lYFaP5D1PRAQBcr-5">
          <mxGeometry y="26" width="190" height="8" as="geometry" />
        </mxCell>
        <mxCell id="_2_z6lYFaP5D1PRAQBcr-7" value="enqueue(MI : methode invocation)" style="text;strokeColor=none;fillColor=none;align=left;verticalAlign=top;spacingLeft=4;spacingRight=4;overflow=hidden;rotatable=0;points=[[0,0.5],[1,0.5]];portConstraint=eastwest;" vertex="1" parent="_2_z6lYFaP5D1PRAQBcr-5">
          <mxGeometry y="34" width="190" height="26" as="geometry" />
        </mxCell>
        <mxCell id="_2_z6lYFaP5D1PRAQBcr-9" value="" style="endArrow=open;endSize=12;dashed=1;html=1;exitX=0.806;exitY=0.126;exitDx=0;exitDy=0;entryX=-0.011;entryY=0.248;entryDx=0;entryDy=0;entryPerimeter=0;exitPerimeter=0;" edge="1" parent="1" source="u4inovR8USdmvOTjzRPa-23" target="_2_z6lYFaP5D1PRAQBcr-7">
          <mxGeometry x="-0.5618" y="-42" width="160" relative="1" as="geometry">
            <mxPoint x="480" y="305" as="sourcePoint" />
            <mxPoint x="620.5999999999999" y="398.788" as="targetPoint" />
            <mxPoint as="offset" />
            <Array as="points" />
          </mxGeometry>
        </mxCell>
        <mxCell id="_2_z6lYFaP5D1PRAQBcr-10" value="Scheduler" style="text;html=1;align=center;verticalAlign=middle;resizable=0;points=[];autosize=1;strokeColor=none;fillColor=none;" vertex="1" parent="1">
          <mxGeometry x="520" y="250" width="70" height="20" as="geometry" />
        </mxCell>
        <mxCell id="_2_z6lYFaP5D1PRAQBcr-11" value="Callable" style="swimlane;fontStyle=1;align=center;verticalAlign=top;childLayout=stackLayout;horizontal=1;startSize=26;horizontalStack=0;resizeParent=1;resizeParentMax=0;resizeLast=0;collapsible=1;marginBottom=0;" vertex="1" parent="1">
          <mxGeometry x="180" y="40" width="190" height="60" as="geometry" />
        </mxCell>
        <mxCell id="_2_z6lYFaP5D1PRAQBcr-12" value="" style="line;strokeWidth=1;fillColor=none;align=left;verticalAlign=middle;spacingTop=-1;spacingLeft=3;spacingRight=3;rotatable=0;labelPosition=right;points=[];portConstraint=eastwest;" vertex="1" parent="_2_z6lYFaP5D1PRAQBcr-11">
          <mxGeometry y="26" width="190" height="8" as="geometry" />
        </mxCell>
        <mxCell id="_2_z6lYFaP5D1PRAQBcr-13" value="()=&gt;{}" style="text;strokeColor=none;fillColor=none;align=left;verticalAlign=top;spacingLeft=4;spacingRight=4;overflow=hidden;rotatable=0;points=[[0,0.5],[1,0.5]];portConstraint=eastwest;" vertex="1" parent="_2_z6lYFaP5D1PRAQBcr-11">
          <mxGeometry y="34" width="190" height="26" as="geometry" />
        </mxCell>
        <mxCell id="_2_z6lYFaP5D1PRAQBcr-14" value="" style="endArrow=open;endSize=12;dashed=1;html=1;exitX=0.5;exitY=0;exitDx=0;exitDy=0;" edge="1" parent="1" source="u4inovR8USdmvOTjzRPa-23" target="_2_z6lYFaP5D1PRAQBcr-13">
          <mxGeometry x="-0.5618" y="-42" width="160" relative="1" as="geometry">
            <mxPoint x="452.84000000000015" y="278.81999999999994" as="sourcePoint" />
            <mxPoint x="622.9099999999999" y="215.4480000000001" as="targetPoint" />
            <mxPoint as="offset" />
            <Array as="points" />
          </mxGeometry>
        </mxCell>
        <mxCell id="_2_z6lYFaP5D1PRAQBcr-15" value="Concrete MI" style="text;html=1;align=center;verticalAlign=middle;resizable=0;points=[];autosize=1;strokeColor=none;fillColor=none;" vertex="1" parent="1">
          <mxGeometry x="310" y="130" width="80" height="20" as="geometry" />
        </mxCell>
        <mxCell id="_2_z6lYFaP5D1PRAQBcr-18" value="" style="endArrow=open;endSize=12;dashed=1;html=1;exitX=0.211;exitY=0.078;exitDx=0;exitDy=0;exitPerimeter=0;entryX=1.003;entryY=0.308;entryDx=0;entryDy=0;entryPerimeter=0;" edge="1" parent="1" source="u4inovR8USdmvOTjzRPa-23" target="lQtd0ZYqk-3RHYO5bnGG-6">
          <mxGeometry x="-0.5618" y="-42" width="160" relative="1" as="geometry">
            <mxPoint x="482.02" y="338.03" as="sourcePoint" />
            <mxPoint x="609.0500000000002" y="450.9200000000001" as="targetPoint" />
            <mxPoint as="offset" />
          </mxGeometry>
        </mxCell>
        <mxCell id="_2_z6lYFaP5D1PRAQBcr-19" value="Client" style="text;html=1;align=center;verticalAlign=middle;resizable=0;points=[];autosize=1;strokeColor=none;fillColor=none;" vertex="1" parent="1">
          <mxGeometry x="310" y="220" width="50" height="20" as="geometry" />
        </mxCell>
        <mxCell id="_2_z6lYFaP5D1PRAQBcr-20" value="Proxy" style="text;html=1;align=center;verticalAlign=middle;resizable=0;points=[];autosize=1;strokeColor=none;fillColor=none;" vertex="1" parent="1">
          <mxGeometry x="380" y="540" width="50" height="20" as="geometry" />
        </mxCell>
        <mxCell id="_2_z6lYFaP5D1PRAQBcr-21" value="Canal" style="swimlane;fontStyle=1;align=center;verticalAlign=top;childLayout=stackLayout;horizontal=1;startSize=26;horizontalStack=0;resizeParent=1;resizeParentMax=0;resizeLast=0;collapsible=1;marginBottom=0;" vertex="1" parent="1">
          <mxGeometry x="290" y="650" width="290" height="90" as="geometry" />
        </mxCell>
        <mxCell id="_2_z6lYFaP5D1PRAQBcr-22" value="" style="line;strokeWidth=1;fillColor=none;align=left;verticalAlign=middle;spacingTop=-1;spacingLeft=3;spacingRight=3;rotatable=0;labelPosition=right;points=[];portConstraint=eastwest;" vertex="1" parent="_2_z6lYFaP5D1PRAQBcr-21">
          <mxGeometry y="26" width="290" height="4" as="geometry" />
        </mxCell>
        <mxCell id="_2_z6lYFaP5D1PRAQBcr-23" value="update(s:Capteur)&#xa;&#xa;GetValue(obs : ObserverDeCapteur) : FUTURE&#xa;" style="text;strokeColor=none;fillColor=none;align=left;verticalAlign=top;spacingLeft=4;spacingRight=4;overflow=hidden;rotatable=0;points=[[0,0.5],[1,0.5]];portConstraint=eastwest;" vertex="1" parent="_2_z6lYFaP5D1PRAQBcr-21">
          <mxGeometry y="30" width="290" height="60" as="geometry" />
        </mxCell>
        <mxCell id="_2_z6lYFaP5D1PRAQBcr-24" value="&lt;&lt;Interface&gt;&gt;&#xa;ObserverdeCapteruAsync" style="swimlane;fontStyle=1;align=center;verticalAlign=top;childLayout=stackLayout;horizontal=1;startSize=40;horizontalStack=0;resizeParent=1;resizeParentMax=0;resizeLast=0;collapsible=1;marginBottom=0;" vertex="1" parent="1">
          <mxGeometry x="70" y="494" width="210" height="66" as="geometry" />
        </mxCell>
        <mxCell id="_2_z6lYFaP5D1PRAQBcr-26" value="update(s:Capteur) : Future" style="text;strokeColor=none;fillColor=none;align=left;verticalAlign=top;spacingLeft=4;spacingRight=4;overflow=hidden;rotatable=0;points=[[0,0.5],[1,0.5]];portConstraint=eastwest;" vertex="1" parent="_2_z6lYFaP5D1PRAQBcr-24">
          <mxGeometry y="40" width="210" height="26" as="geometry" />
        </mxCell>
        <mxCell id="_2_z6lYFaP5D1PRAQBcr-25" value="" style="line;strokeWidth=1;fillColor=none;align=left;verticalAlign=middle;spacingTop=-1;spacingLeft=3;spacingRight=3;rotatable=0;labelPosition=right;points=[];portConstraint=eastwest;" vertex="1" parent="_2_z6lYFaP5D1PRAQBcr-24">
          <mxGeometry y="66" width="210" as="geometry" />
        </mxCell>
        <mxCell id="_2_z6lYFaP5D1PRAQBcr-28" value="" style="endArrow=block;dashed=1;endFill=0;endSize=12;html=1;entryX=1.004;entryY=0.262;entryDx=0;entryDy=0;entryPerimeter=0;" edge="1" parent="1" source="u4inovR8USdmvOTjzRPa-4" target="lQtd0ZYqk-3RHYO5bnGG-28">
          <mxGeometry width="160" relative="1" as="geometry">
            <mxPoint x="-433.8399999999999" y="767.6479999999999" as="sourcePoint" />
            <mxPoint x="-262.7199999999998" y="663.2159999999999" as="targetPoint" />
            <Array as="points" />
          </mxGeometry>
        </mxCell>
        <mxCell id="_2_z6lYFaP5D1PRAQBcr-29" value="" style="endArrow=block;dashed=1;endFill=0;endSize=12;html=1;exitX=0.5;exitY=0;exitDx=0;exitDy=0;" edge="1" parent="1" source="lQtd0ZYqk-3RHYO5bnGG-31" target="lQtd0ZYqk-3RHYO5bnGG-28">
          <mxGeometry width="160" relative="1" as="geometry">
            <mxPoint x="-423.8399999999999" y="777.6479999999999" as="sourcePoint" />
            <mxPoint x="-252.7199999999998" y="673.2159999999999" as="targetPoint" />
            <Array as="points" />
          </mxGeometry>
        </mxCell>
        <mxCell id="_2_z6lYFaP5D1PRAQBcr-31" value="" style="endArrow=open;endSize=12;dashed=1;html=1;exitX=0;exitY=1;exitDx=0;exitDy=0;entryX=1;entryY=0.25;entryDx=0;entryDy=0;" edge="1" parent="1" source="u4inovR8USdmvOTjzRPa-23" target="_2_z6lYFaP5D1PRAQBcr-24">
          <mxGeometry x="-0.5618" y="-42" width="160" relative="1" as="geometry">
            <mxPoint x="390.67999999999984" y="342.0999999999999" as="sourcePoint" />
            <mxPoint x="290.5999999999999" y="426.5899999999999" as="targetPoint" />
            <mxPoint as="offset" />
          </mxGeometry>
        </mxCell>
        <mxCell id="_2_z6lYFaP5D1PRAQBcr-32" value="Service" style="text;html=1;align=center;verticalAlign=middle;resizable=0;points=[];autosize=1;strokeColor=none;fillColor=none;" vertex="1" parent="1">
          <mxGeometry x="320" y="420" width="60" height="20" as="geometry" />
        </mxCell>
        <mxCell id="_2_z6lYFaP5D1PRAQBcr-34" value="" style="endArrow=open;endSize=12;dashed=1;html=1;entryX=0.5;entryY=0;entryDx=0;entryDy=0;" edge="1" parent="1" source="u4inovR8USdmvOTjzRPa-23" target="_2_z6lYFaP5D1PRAQBcr-21">
          <mxGeometry x="-0.5618" y="-42" width="160" relative="1" as="geometry">
            <mxPoint x="400.67999999999984" y="352.0999999999999" as="sourcePoint" />
            <mxPoint x="300.5999999999999" y="436.5899999999999" as="targetPoint" />
            <mxPoint as="offset" />
          </mxGeometry>
        </mxCell>
        <mxCell id="_2_z6lYFaP5D1PRAQBcr-36" value="" style="endArrow=block;dashed=1;endFill=0;endSize=12;html=1;entryX=0.458;entryY=0.996;entryDx=0;entryDy=0;entryPerimeter=0;exitX=0;exitY=0.25;exitDx=0;exitDy=0;" edge="1" parent="1" source="_2_z6lYFaP5D1PRAQBcr-21" target="_2_z6lYFaP5D1PRAQBcr-26">
          <mxGeometry width="160" relative="1" as="geometry">
            <mxPoint x="2.0735057798974594" y="770" as="sourcePoint" />
            <mxPoint x="-99.36000000000013" y="657.672" as="targetPoint" />
            <Array as="points" />
          </mxGeometry>
        </mxCell>
        <mxCell id="_2_z6lYFaP5D1PRAQBcr-37" value="Active Object" style="ellipse;whiteSpace=wrap;html=1;dashed=1;" vertex="1" parent="1">
          <mxGeometry x="730" y="-90" width="140" height="70" as="geometry" />
        </mxCell>
        <mxCell id="_2_z6lYFaP5D1PRAQBcr-39" value="" style="endArrow=open;endSize=12;dashed=1;html=1;exitX=0.349;exitY=1.026;exitDx=0;exitDy=0;entryX=0.401;entryY=-0.041;entryDx=0;entryDy=0;entryPerimeter=0;exitPerimeter=0;" edge="1" parent="1" source="_2_z6lYFaP5D1PRAQBcr-37" target="_2_z6lYFaP5D1PRAQBcr-5">
          <mxGeometry x="-0.5618" y="-42" width="160" relative="1" as="geometry">
            <mxPoint x="466.84000000000015" y="318.82000000000016" as="sourcePoint" />
            <mxPoint x="637.9099999999999" y="270.44799999999987" as="targetPoint" />
            <mxPoint as="offset" />
            <Array as="points" />
          </mxGeometry>
        </mxCell>
        <mxCell id="_2_z6lYFaP5D1PRAQBcr-40" value="Scheduler" style="text;html=1;align=center;verticalAlign=middle;resizable=0;points=[];autosize=1;strokeColor=none;fillColor=none;" vertex="1" parent="1">
          <mxGeometry x="660" y="150" width="70" height="20" as="geometry" />
        </mxCell>
        <mxCell id="_2_z6lYFaP5D1PRAQBcr-43" value="" style="endArrow=open;endSize=12;dashed=1;html=1;exitX=0;exitY=1;exitDx=0;exitDy=0;entryX=1;entryY=0.25;entryDx=0;entryDy=0;" edge="1" parent="1" source="_2_z6lYFaP5D1PRAQBcr-37" target="_2_z6lYFaP5D1PRAQBcr-11">
          <mxGeometry x="-0.5618" y="-42" width="160" relative="1" as="geometry">
            <mxPoint x="780.04" y="30" as="sourcePoint" />
            <mxPoint x="716.19" y="227.53999999999996" as="targetPoint" />
            <mxPoint as="offset" />
            <Array as="points" />
          </mxGeometry>
        </mxCell>
        <mxCell id="_2_z6lYFaP5D1PRAQBcr-44" value="Concrete MI" style="text;html=1;align=center;verticalAlign=middle;resizable=0;points=[];autosize=1;strokeColor=none;fillColor=none;" vertex="1" parent="1">
          <mxGeometry x="510" y="-10" width="80" height="20" as="geometry" />
        </mxCell>
        <mxCell id="_2_z6lYFaP5D1PRAQBcr-50" value="" style="endArrow=open;endSize=12;dashed=1;html=1;exitX=0;exitY=0;exitDx=0;exitDy=0;entryX=0;entryY=0;entryDx=0;entryDy=0;" edge="1" parent="1" source="_2_z6lYFaP5D1PRAQBcr-37" target="_2_z6lYFaP5D1PRAQBcr-24">
          <mxGeometry x="-0.5618" y="-42" width="160" relative="1" as="geometry">
            <mxPoint x="560.0000000000205" y="35" as="sourcePoint" />
            <mxPoint x="-40" y="-20" as="targetPoint" />
            <mxPoint as="offset" />
            <Array as="points">
              <mxPoint x="420" y="-90" />
              <mxPoint x="100" y="-30" />
              <mxPoint x="-40" y="160" />
            </Array>
          </mxGeometry>
        </mxCell>
        <mxCell id="_2_z6lYFaP5D1PRAQBcr-69" value="Servant" style="edgeLabel;html=1;align=center;verticalAlign=middle;resizable=0;points=[];fontSize=14;" vertex="1" connectable="0" parent="_2_z6lYFaP5D1PRAQBcr-50">
          <mxGeometry x="-0.2" y="-1" relative="1" as="geometry">
            <mxPoint as="offset" />
          </mxGeometry>
        </mxCell>
        <mxCell id="_2_z6lYFaP5D1PRAQBcr-52" value="" style="endArrow=open;endSize=12;dashed=1;html=1;exitX=0.69;exitY=1.026;exitDx=0;exitDy=0;entryX=1.027;entryY=0.087;entryDx=0;entryDy=0;entryPerimeter=0;exitPerimeter=0;" edge="1" parent="1" source="_2_z6lYFaP5D1PRAQBcr-37" target="lQtd0ZYqk-3RHYO5bnGG-9">
          <mxGeometry x="-0.5618" y="-42" width="160" relative="1" as="geometry">
            <mxPoint x="579.9948993037133" y="10.507705781410095" as="sourcePoint" />
            <mxPoint x="80.00000000000091" y="504" as="targetPoint" />
            <mxPoint as="offset" />
            <Array as="points">
              <mxPoint x="860" y="290" />
            </Array>
          </mxGeometry>
        </mxCell>
        <mxCell id="_2_z6lYFaP5D1PRAQBcr-53" value="&lt;font style=&quot;font-size: 14px&quot;&gt;Client&lt;/font&gt;" style="edgeLabel;html=1;align=center;verticalAlign=middle;resizable=0;points=[];" vertex="1" connectable="0" parent="_2_z6lYFaP5D1PRAQBcr-52">
          <mxGeometry x="0.0105" y="2" relative="1" as="geometry">
            <mxPoint as="offset" />
          </mxGeometry>
        </mxCell>
        <mxCell id="_2_z6lYFaP5D1PRAQBcr-54" value="&lt;&lt;Interface&gt;&gt;&#xa;CapteurAsync" style="swimlane;fontStyle=1;align=center;verticalAlign=top;childLayout=stackLayout;horizontal=1;startSize=40;horizontalStack=0;resizeParent=1;resizeParentMax=0;resizeLast=0;collapsible=1;marginBottom=0;" vertex="1" parent="1">
          <mxGeometry x="950" y="474" width="260" height="66" as="geometry" />
        </mxCell>
        <mxCell id="_2_z6lYFaP5D1PRAQBcr-55" value="GetValue(obs : ObserverDeCapteur) : FUTURE" style="text;strokeColor=none;fillColor=none;align=left;verticalAlign=top;spacingLeft=4;spacingRight=4;overflow=hidden;rotatable=0;points=[[0,0.5],[1,0.5]];portConstraint=eastwest;" vertex="1" parent="_2_z6lYFaP5D1PRAQBcr-54">
          <mxGeometry y="40" width="260" height="26" as="geometry" />
        </mxCell>
        <mxCell id="_2_z6lYFaP5D1PRAQBcr-56" value="" style="line;strokeWidth=1;fillColor=none;align=left;verticalAlign=middle;spacingTop=-1;spacingLeft=3;spacingRight=3;rotatable=0;labelPosition=right;points=[];portConstraint=eastwest;" vertex="1" parent="_2_z6lYFaP5D1PRAQBcr-54">
          <mxGeometry y="66" width="260" as="geometry" />
        </mxCell>
        <mxCell id="_2_z6lYFaP5D1PRAQBcr-57" value="" style="endArrow=open;endSize=12;dashed=1;html=1;entryX=0.5;entryY=0;entryDx=0;entryDy=0;exitX=1;exitY=0;exitDx=0;exitDy=0;" edge="1" parent="1" source="_2_z6lYFaP5D1PRAQBcr-37" target="_2_z6lYFaP5D1PRAQBcr-54">
          <mxGeometry x="-0.5618" y="-42" width="160" relative="1" as="geometry">
            <mxPoint x="1080" y="-70" as="sourcePoint" />
            <mxPoint x="716.19" y="227.53999999999996" as="targetPoint" />
            <mxPoint as="offset" />
            <Array as="points">
              <mxPoint x="1040" y="30" />
            </Array>
          </mxGeometry>
        </mxCell>
        <mxCell id="_2_z6lYFaP5D1PRAQBcr-58" value="Service" style="edgeLabel;html=1;align=center;verticalAlign=middle;resizable=0;points=[];fontSize=14;" vertex="1" connectable="0" parent="_2_z6lYFaP5D1PRAQBcr-57">
          <mxGeometry x="0.1222" y="4" relative="1" as="geometry">
            <mxPoint as="offset" />
          </mxGeometry>
        </mxCell>
        <mxCell id="_2_z6lYFaP5D1PRAQBcr-60" value="" style="endArrow=block;dashed=1;endFill=0;endSize=12;html=1;entryX=0.599;entryY=1.241;entryDx=0;entryDy=0;entryPerimeter=0;exitX=1;exitY=0.25;exitDx=0;exitDy=0;" edge="1" parent="1" source="_2_z6lYFaP5D1PRAQBcr-21" target="_2_z6lYFaP5D1PRAQBcr-55">
          <mxGeometry width="160" relative="1" as="geometry">
            <mxPoint x="300" y="682.5" as="sourcePoint" />
            <mxPoint x="176.1800000000003" y="569.8960000000002" as="targetPoint" />
            <Array as="points">
              <mxPoint x="920" y="673" />
            </Array>
          </mxGeometry>
        </mxCell>
        <mxCell id="_2_z6lYFaP5D1PRAQBcr-63" value="" style="endArrow=open;endSize=12;dashed=1;html=1;entryX=1;entryY=0.25;entryDx=0;entryDy=0;exitX=0.928;exitY=0.754;exitDx=0;exitDy=0;exitPerimeter=0;" edge="1" parent="1" source="_2_z6lYFaP5D1PRAQBcr-37" target="_2_z6lYFaP5D1PRAQBcr-21">
          <mxGeometry x="-0.5618" y="-42" width="160" relative="1" as="geometry">
            <mxPoint x="860.0051006962872" y="-69.49229421858945" as="sourcePoint" />
            <mxPoint x="1110" y="480" as="targetPoint" />
            <mxPoint as="offset" />
            <Array as="points">
              <mxPoint x="930" y="220" />
              <mxPoint x="910" y="560" />
            </Array>
          </mxGeometry>
        </mxCell>
        <mxCell id="_2_z6lYFaP5D1PRAQBcr-64" value="Proxy" style="edgeLabel;html=1;align=center;verticalAlign=middle;resizable=0;points=[];fontSize=14;" vertex="1" connectable="0" parent="_2_z6lYFaP5D1PRAQBcr-63">
          <mxGeometry x="0.1222" y="4" relative="1" as="geometry">
            <mxPoint y="-104" as="offset" />
          </mxGeometry>
        </mxCell>
        <mxCell id="_2_z6lYFaP5D1PRAQBcr-67" value="" style="endArrow=open;endSize=12;dashed=1;html=1;entryX=0;entryY=0;entryDx=0;entryDy=0;" edge="1" parent="1" target="lQtd0ZYqk-3RHYO5bnGG-12">
          <mxGeometry x="-0.5618" y="-42" width="160" relative="1" as="geometry">
            <mxPoint x="730" y="-60" as="sourcePoint" />
            <mxPoint x="80.00000000000091" y="504" as="targetPoint" />
            <mxPoint as="offset" />
            <Array as="points">
              <mxPoint x="130" y="10" />
              <mxPoint x="20" y="150" />
            </Array>
          </mxGeometry>
        </mxCell>
        <mxCell id="_2_z6lYFaP5D1PRAQBcr-68" value="Concrete servant" style="edgeLabel;html=1;align=center;verticalAlign=middle;resizable=0;points=[];fontSize=14;" vertex="1" connectable="0" parent="_2_z6lYFaP5D1PRAQBcr-67">
          <mxGeometry x="-0.272" y="2" relative="1" as="geometry">
            <mxPoint as="offset" />
          </mxGeometry>
        </mxCell>
      </root>
    </mxGraphModel>
  </diagram>
  <diagram id="oygkHo0LVewBuWuqcDdE" name="M1 seq tick">
    <mxGraphModel dx="791" dy="453" grid="1" gridSize="10" guides="1" tooltips="1" connect="1" arrows="1" fold="1" page="1" pageScale="1" pageWidth="827" pageHeight="1169" math="0" shadow="0">
      <root>
        <mxCell id="dJ09yeF-2EdPxnEv3XRt-0" />
        <mxCell id="dJ09yeF-2EdPxnEv3XRt-1" parent="dJ09yeF-2EdPxnEv3XRt-0" />
        <mxCell id="dJ09yeF-2EdPxnEv3XRt-2" value="c:CapteurImpl" style="shape=umlLifeline;perimeter=lifelinePerimeter;whiteSpace=wrap;html=1;container=1;collapsible=0;recursiveResize=0;outlineConnect=0;" parent="dJ09yeF-2EdPxnEv3XRt-1" vertex="1">
          <mxGeometry x="80" y="80" width="100" height="500" as="geometry" />
        </mxCell>
        <mxCell id="dJ09yeF-2EdPxnEv3XRt-3" value="" style="html=1;points=[];perimeter=orthogonalPerimeter;" parent="dJ09yeF-2EdPxnEv3XRt-2" vertex="1">
          <mxGeometry x="45" y="60" width="10" height="410" as="geometry" />
        </mxCell>
        <mxCell id="dJ09yeF-2EdPxnEv3XRt-4" value="tick()" style="html=1;verticalAlign=bottom;endArrow=block;entryX=0;entryY=0;" parent="dJ09yeF-2EdPxnEv3XRt-2" target="dJ09yeF-2EdPxnEv3XRt-3" edge="1">
          <mxGeometry relative="1" as="geometry">
            <mxPoint x="-25" y="60" as="sourcePoint" />
          </mxGeometry>
        </mxCell>
        <mxCell id="dJ09yeF-2EdPxnEv3XRt-5" value="return" style="html=1;verticalAlign=bottom;endArrow=open;dashed=1;endSize=8;exitX=0;exitY=0.95;" parent="dJ09yeF-2EdPxnEv3XRt-2" source="dJ09yeF-2EdPxnEv3XRt-3" edge="1">
          <mxGeometry relative="1" as="geometry">
            <mxPoint x="-40" y="449" as="targetPoint" />
          </mxGeometry>
        </mxCell>
        <mxCell id="dJ09yeF-2EdPxnEv3XRt-6" value=":DiffusionAtomique" style="shape=umlLifeline;perimeter=lifelinePerimeter;whiteSpace=wrap;html=1;container=1;collapsible=0;recursiveResize=0;outlineConnect=0;" parent="dJ09yeF-2EdPxnEv3XRt-1" vertex="1">
          <mxGeometry x="240" y="80" width="110" height="340" as="geometry" />
        </mxCell>
        <mxCell id="dJ09yeF-2EdPxnEv3XRt-7" value="" style="html=1;points=[];perimeter=orthogonalPerimeter;" parent="dJ09yeF-2EdPxnEv3XRt-6" vertex="1">
          <mxGeometry x="50" y="80" width="10" height="260" as="geometry" />
        </mxCell>
        <mxCell id="qzFAGPM8XkQG0qhffkP5-2" value="" style="endArrow=open;endFill=1;endSize=12;html=1;entryX=0;entryY=0.272;entryDx=0;entryDy=0;entryPerimeter=0;" parent="dJ09yeF-2EdPxnEv3XRt-6" target="qzFAGPM8XkQG0qhffkP5-1" edge="1">
          <mxGeometry width="160" relative="1" as="geometry">
            <mxPoint x="60" y="120" as="sourcePoint" />
            <mxPoint x="230" y="120" as="targetPoint" />
          </mxGeometry>
        </mxCell>
        <mxCell id="dJ09yeF-2EdPxnEv3XRt-8" value="execute()" style="html=1;verticalAlign=bottom;endArrow=block;entryX=0;entryY=0;exitX=0.867;exitY=0.046;exitDx=0;exitDy=0;exitPerimeter=0;" parent="dJ09yeF-2EdPxnEv3XRt-1" source="dJ09yeF-2EdPxnEv3XRt-3" target="dJ09yeF-2EdPxnEv3XRt-7" edge="1">
          <mxGeometry relative="1" as="geometry">
            <mxPoint x="220" y="160" as="sourcePoint" />
          </mxGeometry>
        </mxCell>
        <mxCell id="dJ09yeF-2EdPxnEv3XRt-10" value="lock()" style="html=1;verticalAlign=bottom;endArrow=block;entryX=1;entryY=0.115;entryDx=0;entryDy=0;entryPerimeter=0;" parent="dJ09yeF-2EdPxnEv3XRt-1" target="dJ09yeF-2EdPxnEv3XRt-3" edge="1">
          <mxGeometry width="80" relative="1" as="geometry">
            <mxPoint x="295" y="187" as="sourcePoint" />
            <mxPoint x="260" y="190" as="targetPoint" />
          </mxGeometry>
        </mxCell>
        <mxCell id="qzFAGPM8XkQG0qhffkP5-0" value="c1:Canal" style="shape=umlLifeline;perimeter=lifelinePerimeter;whiteSpace=wrap;html=1;container=1;collapsible=0;recursiveResize=0;outlineConnect=0;" parent="dJ09yeF-2EdPxnEv3XRt-1" vertex="1">
          <mxGeometry x="440" y="80" width="100" height="380" as="geometry" />
        </mxCell>
        <mxCell id="qzFAGPM8XkQG0qhffkP5-1" value="" style="html=1;points=[];perimeter=orthogonalPerimeter;" parent="qzFAGPM8XkQG0qhffkP5-0" vertex="1">
          <mxGeometry x="45" y="40" width="10" height="290" as="geometry" />
        </mxCell>
        <mxCell id="qzFAGPM8XkQG0qhffkP5-3" value="&lt;span style=&quot;color: rgb(0 , 0 , 0) ; font-family: &amp;#34;helvetica&amp;#34; ; font-size: 11px ; font-style: normal ; font-weight: 400 ; letter-spacing: normal ; text-align: center ; text-indent: 0px ; text-transform: none ; word-spacing: 0px ; background-color: rgb(255 , 255 , 255) ; display: inline ; float: none&quot;&gt;update(c)&lt;/span&gt;" style="text;whiteSpace=wrap;html=1;" parent="dJ09yeF-2EdPxnEv3XRt-1" vertex="1">
          <mxGeometry x="380" y="170" width="50" height="30" as="geometry" />
        </mxCell>
        <mxCell id="qzFAGPM8XkQG0qhffkP5-4" value="a1:Afficheur" style="shape=umlLifeline;perimeter=lifelinePerimeter;whiteSpace=wrap;html=1;container=1;collapsible=0;recursiveResize=0;outlineConnect=0;" parent="dJ09yeF-2EdPxnEv3XRt-1" vertex="1">
          <mxGeometry x="600" y="80" width="100" height="380" as="geometry" />
        </mxCell>
        <mxCell id="qzFAGPM8XkQG0qhffkP5-5" value="" style="html=1;points=[];perimeter=orthogonalPerimeter;" parent="qzFAGPM8XkQG0qhffkP5-4" vertex="1">
          <mxGeometry x="45" y="40" width="10" height="290" as="geometry" />
        </mxCell>
        <mxCell id="qzFAGPM8XkQG0qhffkP5-6" value="" style="endArrow=open;endFill=1;endSize=12;html=1;" parent="dJ09yeF-2EdPxnEv3XRt-1" edge="1">
          <mxGeometry width="160" relative="1" as="geometry">
            <mxPoint x="490" y="221" as="sourcePoint" />
            <mxPoint x="640" y="221" as="targetPoint" />
          </mxGeometry>
        </mxCell>
        <mxCell id="qzFAGPM8XkQG0qhffkP5-7" value="&lt;span style=&quot;color: rgb(0 , 0 , 0) ; font-family: &amp;#34;helvetica&amp;#34; ; font-size: 11px ; font-style: normal ; font-weight: 400 ; letter-spacing: normal ; text-align: center ; text-indent: 0px ; text-transform: none ; word-spacing: 0px ; background-color: rgb(255 , 255 , 255) ; display: inline ; float: none&quot;&gt;update(c)&lt;/span&gt;" style="text;whiteSpace=wrap;html=1;" parent="dJ09yeF-2EdPxnEv3XRt-1" vertex="1">
          <mxGeometry x="540" y="190" width="50" height="30" as="geometry" />
        </mxCell>
        <mxCell id="qzFAGPM8XkQG0qhffkP5-8" value="" style="endArrow=open;endFill=1;endSize=12;html=1;exitX=0;exitY=0.545;exitDx=0;exitDy=0;exitPerimeter=0;entryX=0.933;entryY=0.521;entryDx=0;entryDy=0;entryPerimeter=0;" parent="dJ09yeF-2EdPxnEv3XRt-1" source="qzFAGPM8XkQG0qhffkP5-1" target="dJ09yeF-2EdPxnEv3XRt-3" edge="1">
          <mxGeometry width="160" relative="1" as="geometry">
            <mxPoint x="480" y="249.67000000000002" as="sourcePoint" />
            <mxPoint x="390" y="249.67000000000002" as="targetPoint" />
          </mxGeometry>
        </mxCell>
        <mxCell id="qzFAGPM8XkQG0qhffkP5-9" value="&lt;span style=&quot;color: rgb(0 , 0 , 0) ; font-family: &amp;#34;helvetica&amp;#34; ; font-size: 11px ; font-style: normal ; font-weight: 400 ; letter-spacing: normal ; text-align: center ; text-indent: 0px ; text-transform: none ; word-spacing: 0px ; background-color: rgb(255 , 255 , 255) ; display: inline ; float: none&quot;&gt;getValue(c1)&lt;/span&gt;" style="text;whiteSpace=wrap;html=1;" parent="dJ09yeF-2EdPxnEv3XRt-1" vertex="1">
          <mxGeometry x="350" y="265" width="50" height="30" as="geometry" />
        </mxCell>
        <mxCell id="qzFAGPM8XkQG0qhffkP5-10" value="" style="endArrow=open;endFill=1;endSize=12;html=1;exitX=-0.067;exitY=0.5;exitDx=0;exitDy=0;exitPerimeter=0;" parent="dJ09yeF-2EdPxnEv3XRt-1" source="qzFAGPM8XkQG0qhffkP5-5" edge="1">
          <mxGeometry width="160" relative="1" as="geometry">
            <mxPoint x="600" y="263.4699999999999" as="sourcePoint" />
            <mxPoint x="500" y="270" as="targetPoint" />
          </mxGeometry>
        </mxCell>
        <mxCell id="qzFAGPM8XkQG0qhffkP5-11" value="&lt;span style=&quot;color: rgb(0 , 0 , 0) ; font-family: &amp;#34;helvetica&amp;#34; ; font-size: 11px ; font-style: normal ; font-weight: 400 ; letter-spacing: normal ; text-align: center ; text-indent: 0px ; text-transform: none ; word-spacing: 0px ; background-color: rgb(255 , 255 , 255) ; display: inline ; float: none&quot;&gt;getValue(a1)&lt;/span&gt;" style="text;whiteSpace=wrap;html=1;" parent="dJ09yeF-2EdPxnEv3XRt-1" vertex="1">
          <mxGeometry x="520" y="235" width="50" height="30" as="geometry" />
        </mxCell>
        <mxCell id="qzFAGPM8XkQG0qhffkP5-12" value="v1" style="html=1;verticalAlign=bottom;endArrow=open;dashed=1;endSize=8;exitX=1;exitY=0.547;exitDx=0;exitDy=0;exitPerimeter=0;entryX=-0.267;entryY=0.914;entryDx=0;entryDy=0;entryPerimeter=0;" parent="dJ09yeF-2EdPxnEv3XRt-1" source="dJ09yeF-2EdPxnEv3XRt-3" target="qzFAGPM8XkQG0qhffkP5-1" edge="1">
          <mxGeometry relative="1" as="geometry">
            <mxPoint x="380" y="510" as="sourcePoint" />
            <mxPoint x="300" y="510" as="targetPoint" />
          </mxGeometry>
        </mxCell>
        <mxCell id="qzFAGPM8XkQG0qhffkP5-13" value="v1" style="html=1;verticalAlign=bottom;endArrow=open;dashed=1;endSize=8;exitX=1.2;exitY=0.938;exitDx=0;exitDy=0;exitPerimeter=0;entryX=0;entryY=0.969;entryDx=0;entryDy=0;entryPerimeter=0;" parent="dJ09yeF-2EdPxnEv3XRt-1" source="qzFAGPM8XkQG0qhffkP5-1" target="qzFAGPM8XkQG0qhffkP5-5" edge="1">
          <mxGeometry relative="1" as="geometry">
            <mxPoint x="140" y="320" as="sourcePoint" />
            <mxPoint x="487.3299999999999" y="340.7900000000002" as="targetPoint" />
          </mxGeometry>
        </mxCell>
        <mxCell id="qzFAGPM8XkQG0qhffkP5-14" value="unlock()" style="html=1;verticalAlign=bottom;endArrow=block;entryX=1;entryY=0.64;entryDx=0;entryDy=0;entryPerimeter=0;exitX=-0.167;exitY=0.927;exitDx=0;exitDy=0;exitPerimeter=0;" parent="dJ09yeF-2EdPxnEv3XRt-1" source="dJ09yeF-2EdPxnEv3XRt-7" target="dJ09yeF-2EdPxnEv3XRt-3" edge="1">
          <mxGeometry width="80" relative="1" as="geometry">
            <mxPoint x="190" y="440" as="sourcePoint" />
            <mxPoint x="270" y="440" as="targetPoint" />
          </mxGeometry>
        </mxCell>
        <mxCell id="5gHoZ8IxZEj5R7HCB5KZ-1" value="valueRead(c1)" style="html=1;verticalAlign=bottom;endArrow=block;" parent="dJ09yeF-2EdPxnEv3XRt-1" edge="1">
          <mxGeometry width="80" relative="1" as="geometry">
            <mxPoint x="135" y="390" as="sourcePoint" />
            <mxPoint x="290" y="390" as="targetPoint" />
          </mxGeometry>
        </mxCell>
      </root>
    </mxGraphModel>
  </diagram>
</mxfile>
